<mxfile host="app.diagrams.net" agent="Mozilla/5.0 (Windows NT 10.0; Win64; x64) AppleWebKit/537.36 (KHTML, like Gecko) Chrome/127.0.0.0 Safari/537.36 OPR/113.0.0.0" version="24.7.16">
  <diagram name="Page-1" id="gQNSO0fldPUX15JqT65q">
    <mxGraphModel dx="1193" dy="1967" grid="1" gridSize="10" guides="1" tooltips="1" connect="1" arrows="1" fold="1" page="1" pageScale="1" pageWidth="850" pageHeight="1100" math="0" shadow="0">
      <root>
        <mxCell id="0" />
        <mxCell id="1" parent="0" />
        <mxCell id="GwmX7n52m_noJ4MPf2nf-165" value="" style="shape=flexArrow;endArrow=classic;html=1;rounded=0;" edge="1" parent="1">
          <mxGeometry width="50" height="50" relative="1" as="geometry">
            <mxPoint x="420" y="-30" as="sourcePoint" />
            <mxPoint x="419.68" y="-70" as="targetPoint" />
          </mxGeometry>
        </mxCell>
        <mxCell id="GwmX7n52m_noJ4MPf2nf-162" value="" style="rounded=1;whiteSpace=wrap;html=1;" vertex="1" parent="1">
          <mxGeometry x="360" y="-370" width="120" height="120" as="geometry" />
        </mxCell>
        <mxCell id="GwmX7n52m_noJ4MPf2nf-132" value="" style="ellipse;whiteSpace=wrap;html=1;aspect=fixed;" vertex="1" parent="1">
          <mxGeometry x="345" y="-582.5" width="160" height="160" as="geometry" />
        </mxCell>
        <mxCell id="GwmX7n52m_noJ4MPf2nf-134" value="" style="endArrow=none;html=1;rounded=0;" edge="1" parent="1">
          <mxGeometry width="50" height="50" relative="1" as="geometry">
            <mxPoint y="-500" as="sourcePoint" />
            <mxPoint x="850" y="-500" as="targetPoint" />
          </mxGeometry>
        </mxCell>
        <mxCell id="GwmX7n52m_noJ4MPf2nf-127" value="" style="shape=flexArrow;endArrow=classic;html=1;rounded=0;width=28.125;endSize=14.13125;endWidth=28.06584362139918;" edge="1" parent="1">
          <mxGeometry width="50" height="50" relative="1" as="geometry">
            <mxPoint x="640" y="-720.53" as="sourcePoint" />
            <mxPoint x="520" y="-720.53" as="targetPoint" />
          </mxGeometry>
        </mxCell>
        <mxCell id="GwmX7n52m_noJ4MPf2nf-125" value="" style="shape=flexArrow;endArrow=classic;html=1;rounded=0;width=28.125;endSize=14.13125;endWidth=28.06584362139918;" edge="1" parent="1">
          <mxGeometry width="50" height="50" relative="1" as="geometry">
            <mxPoint x="640" y="-80" as="sourcePoint" />
            <mxPoint x="520" y="-80" as="targetPoint" />
          </mxGeometry>
        </mxCell>
        <mxCell id="GwmX7n52m_noJ4MPf2nf-126" value="" style="shape=flexArrow;endArrow=classic;html=1;rounded=0;width=28.125;endSize=14.13125;endWidth=28.06584362139918;" edge="1" parent="1">
          <mxGeometry width="50" height="50" relative="1" as="geometry">
            <mxPoint x="640" y="-400.53000000000003" as="sourcePoint" />
            <mxPoint x="520" y="-400.53000000000003" as="targetPoint" />
          </mxGeometry>
        </mxCell>
        <mxCell id="GwmX7n52m_noJ4MPf2nf-124" value="" style="shape=flexArrow;endArrow=classic;html=1;rounded=0;width=28.125;endSize=14.13125;endWidth=28.06584362139918;" edge="1" parent="1">
          <mxGeometry width="50" height="50" relative="1" as="geometry">
            <mxPoint x="190" y="-920" as="sourcePoint" />
            <mxPoint x="320" y="-919.74" as="targetPoint" />
          </mxGeometry>
        </mxCell>
        <mxCell id="GwmX7n52m_noJ4MPf2nf-123" value="" style="shape=flexArrow;endArrow=classic;html=1;rounded=0;width=28.125;endSize=14.13125;endWidth=28.06584362139918;" edge="1" parent="1">
          <mxGeometry width="50" height="50" relative="1" as="geometry">
            <mxPoint x="190" y="-600" as="sourcePoint" />
            <mxPoint x="320" y="-599.74" as="targetPoint" />
          </mxGeometry>
        </mxCell>
        <mxCell id="GwmX7n52m_noJ4MPf2nf-121" value="" style="shape=flexArrow;endArrow=classic;html=1;rounded=0;width=28.125;endSize=14.13125;endWidth=28.06584362139918;" edge="1" parent="1">
          <mxGeometry width="50" height="50" relative="1" as="geometry">
            <mxPoint x="190" y="-280" as="sourcePoint" />
            <mxPoint x="320" y="-279.74" as="targetPoint" />
          </mxGeometry>
        </mxCell>
        <mxCell id="5glFlV0Qo57VCIOPuQPb-4" value="" style="shape=flexArrow;endArrow=classic;html=1;rounded=0;endWidth=31.428571428571427;endSize=18.171428571428567;width=36.19047619047619;" parent="1" edge="1">
          <mxGeometry width="50" height="50" relative="1" as="geometry">
            <mxPoint x="1279.5" y="-730" as="sourcePoint" />
            <mxPoint x="1279.5" y="-850" as="targetPoint" />
          </mxGeometry>
        </mxCell>
        <mxCell id="5glFlV0Qo57VCIOPuQPb-5" value="" style="shape=flexArrow;endArrow=classic;html=1;rounded=0;endWidth=31.428571428571427;endSize=18.171428571428567;width=36.19047619047619;" parent="1" edge="1">
          <mxGeometry width="50" height="50" relative="1" as="geometry">
            <mxPoint x="1279.75" y="-680" as="sourcePoint" />
            <mxPoint x="1279.75" y="-560" as="targetPoint" />
          </mxGeometry>
        </mxCell>
        <mxCell id="GwmX7n52m_noJ4MPf2nf-8" value="" style="ellipse;whiteSpace=wrap;html=1;aspect=fixed;" vertex="1" parent="1">
          <mxGeometry x="1207.75" y="-782.5" width="145" height="145" as="geometry" />
        </mxCell>
        <mxCell id="GwmX7n52m_noJ4MPf2nf-17" value="" style="endArrow=none;html=1;rounded=0;" edge="1" parent="1">
          <mxGeometry width="50" height="50" relative="1" as="geometry">
            <mxPoint x="850" y="-710" as="sourcePoint" />
            <mxPoint x="1690" y="-710" as="targetPoint" />
          </mxGeometry>
        </mxCell>
        <mxCell id="GwmX7n52m_noJ4MPf2nf-12" value="" style="rounded=1;whiteSpace=wrap;html=1;" vertex="1" parent="1">
          <mxGeometry x="1440" y="-840" width="200" height="280" as="geometry" />
        </mxCell>
        <mxCell id="GwmX7n52m_noJ4MPf2nf-11" value="" style="rounded=1;whiteSpace=wrap;html=1;" vertex="1" parent="1">
          <mxGeometry x="920" y="-840" width="200" height="280" as="geometry" />
        </mxCell>
        <mxCell id="5glFlV0Qo57VCIOPuQPb-1" value="" style="rounded=1;whiteSpace=wrap;html=1;" parent="1" vertex="1">
          <mxGeometry x="1055" y="-1100" width="440" height="120" as="geometry" />
        </mxCell>
        <mxCell id="5glFlV0Qo57VCIOPuQPb-2" value="" style="rounded=1;whiteSpace=wrap;html=1;" parent="1" vertex="1">
          <mxGeometry x="930" y="-850" width="200" height="280" as="geometry" />
        </mxCell>
        <mxCell id="5glFlV0Qo57VCIOPuQPb-3" value="" style="rounded=1;whiteSpace=wrap;html=1;" parent="1" vertex="1">
          <mxGeometry x="1430" y="-850" width="200" height="280" as="geometry" />
        </mxCell>
        <mxCell id="5glFlV0Qo57VCIOPuQPb-6" value="&lt;u&gt;Pokemon TCG&lt;br&gt;Higher or Lower?&lt;/u&gt;" style="text;strokeColor=none;fillColor=none;html=1;fontSize=24;fontStyle=1;verticalAlign=middle;align=center;" parent="1" vertex="1">
          <mxGeometry x="1065" y="-1100" width="420" height="60" as="geometry" />
        </mxCell>
        <mxCell id="5glFlV0Qo57VCIOPuQPb-7" value="&lt;font style=&quot;font-size: 36px;&quot;&gt;Pokemon card image&lt;/font&gt;&lt;div&gt;&lt;span style=&quot;font-size: 36px;&quot;&gt;here&lt;/span&gt;&lt;/div&gt;" style="text;html=1;align=center;verticalAlign=middle;whiteSpace=wrap;rounded=0;" parent="1" vertex="1">
          <mxGeometry x="940" y="-850" width="180" height="260" as="geometry" />
        </mxCell>
        <mxCell id="5glFlV0Qo57VCIOPuQPb-8" value="&lt;font style=&quot;font-size: 36px;&quot;&gt;Pokemon card image&lt;/font&gt;&lt;div&gt;&lt;font style=&quot;font-size: 36px;&quot;&gt;here&lt;/font&gt;&lt;/div&gt;" style="text;html=1;align=center;verticalAlign=middle;whiteSpace=wrap;rounded=0;" parent="1" vertex="1">
          <mxGeometry x="1440" y="-840" width="180" height="260" as="geometry" />
        </mxCell>
        <mxCell id="5glFlV0Qo57VCIOPuQPb-10" value="&lt;b&gt;&lt;i&gt;&lt;u&gt;&lt;font style=&quot;font-size: 36px;&quot;&gt;HIGHER?&lt;/font&gt;&lt;/u&gt;&lt;/i&gt;&lt;/b&gt;" style="text;html=1;align=center;verticalAlign=middle;whiteSpace=wrap;rounded=0;" parent="1" vertex="1">
          <mxGeometry x="1180.5" y="-930" width="200" height="80" as="geometry" />
        </mxCell>
        <mxCell id="GwmX7n52m_noJ4MPf2nf-15" style="edgeStyle=orthogonalEdgeStyle;rounded=0;orthogonalLoop=1;jettySize=auto;html=1;entryX=0;entryY=0.5;entryDx=0;entryDy=0;" edge="1" parent="1" source="5glFlV0Qo57VCIOPuQPb-12" target="5glFlV0Qo57VCIOPuQPb-10">
          <mxGeometry relative="1" as="geometry" />
        </mxCell>
        <mxCell id="5glFlV0Qo57VCIOPuQPb-12" value="The color would be green" style="text;html=1;align=center;verticalAlign=middle;whiteSpace=wrap;rounded=0;" parent="1" vertex="1">
          <mxGeometry x="1120.5" y="-975" width="60" height="55" as="geometry" />
        </mxCell>
        <mxCell id="5glFlV0Qo57VCIOPuQPb-13" value="&lt;b&gt;&lt;i&gt;&lt;u&gt;&lt;font style=&quot;font-size: 36px;&quot;&gt;LOWER?&lt;/font&gt;&lt;/u&gt;&lt;/i&gt;&lt;/b&gt;" style="text;html=1;align=center;verticalAlign=middle;whiteSpace=wrap;rounded=0;" parent="1" vertex="1">
          <mxGeometry x="1180" y="-550" width="200" height="80" as="geometry" />
        </mxCell>
        <mxCell id="5glFlV0Qo57VCIOPuQPb-14" style="edgeStyle=orthogonalEdgeStyle;rounded=0;orthogonalLoop=1;jettySize=auto;html=1;" parent="1" source="5glFlV0Qo57VCIOPuQPb-15" target="5glFlV0Qo57VCIOPuQPb-13" edge="1">
          <mxGeometry relative="1" as="geometry" />
        </mxCell>
        <mxCell id="5glFlV0Qo57VCIOPuQPb-15" value="The color would be red" style="text;html=1;align=center;verticalAlign=middle;whiteSpace=wrap;rounded=0;" parent="1" vertex="1">
          <mxGeometry x="1250.5" y="-420" width="60" height="40" as="geometry" />
        </mxCell>
        <mxCell id="5glFlV0Qo57VCIOPuQPb-17" style="edgeStyle=orthogonalEdgeStyle;rounded=0;orthogonalLoop=1;jettySize=auto;html=1;" parent="1" source="5glFlV0Qo57VCIOPuQPb-18" target="5glFlV0Qo57VCIOPuQPb-7" edge="1">
          <mxGeometry relative="1" as="geometry" />
        </mxCell>
        <mxCell id="5glFlV0Qo57VCIOPuQPb-18" value="The player&#39;s&lt;div&gt;card&lt;/div&gt;" style="text;html=1;align=center;verticalAlign=middle;whiteSpace=wrap;rounded=0;" parent="1" vertex="1">
          <mxGeometry x="1030" y="-930" width="60" height="30" as="geometry" />
        </mxCell>
        <mxCell id="5glFlV0Qo57VCIOPuQPb-19" style="edgeStyle=orthogonalEdgeStyle;rounded=0;orthogonalLoop=1;jettySize=auto;html=1;" parent="1" source="5glFlV0Qo57VCIOPuQPb-20" target="5glFlV0Qo57VCIOPuQPb-8" edge="1">
          <mxGeometry relative="1" as="geometry" />
        </mxCell>
        <mxCell id="5glFlV0Qo57VCIOPuQPb-20" value="The card that is being considered higher or lower" style="text;html=1;align=center;verticalAlign=middle;whiteSpace=wrap;rounded=0;" parent="1" vertex="1">
          <mxGeometry x="1450" y="-950" width="120" height="80" as="geometry" />
        </mxCell>
        <mxCell id="5glFlV0Qo57VCIOPuQPb-21" style="edgeStyle=orthogonalEdgeStyle;rounded=0;orthogonalLoop=1;jettySize=auto;html=1;entryX=0.004;entryY=0.369;entryDx=0;entryDy=0;entryPerimeter=0;" parent="1" source="5glFlV0Qo57VCIOPuQPb-22" target="5glFlV0Qo57VCIOPuQPb-1" edge="1">
          <mxGeometry relative="1" as="geometry" />
        </mxCell>
        <mxCell id="5glFlV0Qo57VCIOPuQPb-22" value="The title will have background of the Hoenn Region" style="text;html=1;align=center;verticalAlign=middle;whiteSpace=wrap;rounded=0;" parent="1" vertex="1">
          <mxGeometry x="870" y="-1090" width="130" height="50" as="geometry" />
        </mxCell>
        <mxCell id="5glFlV0Qo57VCIOPuQPb-23" value="Down below will have the page title but in unowns&#39; character" style="text;html=1;align=center;verticalAlign=middle;whiteSpace=wrap;rounded=0;" parent="1" vertex="1">
          <mxGeometry x="1540" y="-1020" width="60" height="30" as="geometry" />
        </mxCell>
        <mxCell id="5glFlV0Qo57VCIOPuQPb-24" style="edgeStyle=orthogonalEdgeStyle;rounded=0;orthogonalLoop=1;jettySize=auto;html=1;entryX=1;entryY=0.75;entryDx=0;entryDy=0;" parent="1" source="5glFlV0Qo57VCIOPuQPb-23" target="5glFlV0Qo57VCIOPuQPb-1" edge="1">
          <mxGeometry relative="1" as="geometry" />
        </mxCell>
        <mxCell id="GwmX7n52m_noJ4MPf2nf-3" value="" style="rounded=1;whiteSpace=wrap;html=1;" vertex="1" parent="1">
          <mxGeometry x="880" y="-440" width="240" height="120" as="geometry" />
        </mxCell>
        <mxCell id="GwmX7n52m_noJ4MPf2nf-5" value="" style="rounded=1;whiteSpace=wrap;html=1;" vertex="1" parent="1">
          <mxGeometry x="1400" y="-440" width="240" height="120" as="geometry" />
        </mxCell>
        <mxCell id="GwmX7n52m_noJ4MPf2nf-6" value="The back ground will be green&lt;div&gt;&lt;br&gt;&lt;/div&gt;" style="text;html=1;align=center;verticalAlign=middle;whiteSpace=wrap;rounded=0;" vertex="1" parent="1">
          <mxGeometry x="870" y="-970" width="90" height="50" as="geometry" />
        </mxCell>
        <mxCell id="GwmX7n52m_noJ4MPf2nf-7" value="" style="ellipse;whiteSpace=wrap;html=1;aspect=fixed;" vertex="1" parent="1">
          <mxGeometry x="1246.6299999999999" y="-743.88" width="67.75" height="67.75" as="geometry" />
        </mxCell>
        <mxCell id="5glFlV0Qo57VCIOPuQPb-9" value="&lt;span style=&quot;font-size: 24px;&quot;&gt;&lt;b&gt;&lt;i&gt;IS IT&lt;/i&gt;&lt;/b&gt;&lt;/span&gt;" style="text;html=1;align=center;verticalAlign=middle;whiteSpace=wrap;rounded=0;" parent="1" vertex="1">
          <mxGeometry x="1253.25" y="-730" width="54.5" height="40" as="geometry" />
        </mxCell>
        <mxCell id="GwmX7n52m_noJ4MPf2nf-13" value="&lt;font style=&quot;font-size: 10px;&quot;&gt;How to play:&lt;/font&gt;&lt;div&gt;&lt;font size=&quot;3&quot;&gt;Can you guess whether the opposing card has a higher or lower pokedex entry number?&lt;/font&gt;&lt;/div&gt;" style="rounded=1;whiteSpace=wrap;html=1;" vertex="1" parent="1">
          <mxGeometry x="1390" y="-450" width="240" height="120" as="geometry" />
        </mxCell>
        <mxCell id="GwmX7n52m_noJ4MPf2nf-14" value="" style="rounded=1;whiteSpace=wrap;html=1;" vertex="1" parent="1">
          <mxGeometry x="890" y="-450" width="240" height="120" as="geometry" />
        </mxCell>
        <mxCell id="GwmX7n52m_noJ4MPf2nf-4" value="&lt;font style=&quot;font-size: 24px;&quot;&gt;A point tracker of how many correct and how many incorrect&lt;/font&gt;" style="text;html=1;align=center;verticalAlign=middle;whiteSpace=wrap;rounded=0;" vertex="1" parent="1">
          <mxGeometry x="900" y="-440" width="220" height="100" as="geometry" />
        </mxCell>
        <mxCell id="GwmX7n52m_noJ4MPf2nf-18" value="This is a pokemball" style="text;html=1;align=center;verticalAlign=middle;whiteSpace=wrap;rounded=0;" vertex="1" parent="1">
          <mxGeometry x="1330" y="-630" width="60" height="30" as="geometry" />
        </mxCell>
        <mxCell id="GwmX7n52m_noJ4MPf2nf-25" value="" style="ellipse;whiteSpace=wrap;html=1;aspect=fixed;" vertex="1" parent="1">
          <mxGeometry x="1330" y="-650" width="90" height="90" as="geometry" />
        </mxCell>
        <mxCell id="GwmX7n52m_noJ4MPf2nf-26" value="" style="ellipse;whiteSpace=wrap;html=1;aspect=fixed;" vertex="1" parent="1">
          <mxGeometry x="1140" y="-850" width="90" height="90" as="geometry" />
        </mxCell>
        <mxCell id="GwmX7n52m_noJ4MPf2nf-27" value="10 second timer&lt;span style=&quot;color: rgba(0, 0, 0, 0); font-family: monospace; font-size: 0px; text-align: start; text-wrap: nowrap;&quot;&gt;%3CmxGraphModel%3E%3Croot%3E%3CmxCell%20id%3D%220%22%2F%3E%3CmxCell%20id%3D%221%22%20parent%3D%220%22%2F%3E%3CmxCell%20id%3D%222%22%20value%3D%22%22%20style%3D%22ellipse%3BwhiteSpace%3Dwrap%3Bhtml%3D1%3Baspect%3Dfixed%3B%22%20vertex%3D%221%22%20parent%3D%221%22%3E%3CmxGeometry%20x%3D%221330%22%20y%3D%22-650%22%20width%3D%2290%22%20height%3D%2290%22%20as%3D%22geometry%22%2F%3E%3C%2FmxCell%3E%3C%2Froot%3E%3C%2FmxGraphModel%3E&lt;/span&gt;" style="text;html=1;align=center;verticalAlign=middle;whiteSpace=wrap;rounded=0;" vertex="1" parent="1">
          <mxGeometry x="1155" y="-820" width="60" height="30" as="geometry" />
        </mxCell>
        <mxCell id="GwmX7n52m_noJ4MPf2nf-29" value="10 second timer&lt;span style=&quot;color: rgba(0, 0, 0, 0); font-family: monospace; font-size: 0px; text-align: start; text-wrap: nowrap;&quot;&gt;%3CmxGraphModel%3E%3Croot%3E%3CmxCell%20id%3D%220%22%2F%3E%3CmxCell%20id%3D%221%22%20parent%3D%220%22%2F%3E%3CmxCell%20id%3D%222%22%20value%3D%22%22%20style%3D%22ellipse%3BwhiteSpace%3Dwrap%3Bhtml%3D1%3Baspect%3Dfixed%3B%22%20vertex%3D%221%22%20parent%3D%221%22%3E%3CmxGeometry%20x%3D%221330%22%20y%3D%22-650%22%20width%3D%2290%22%20height%3D%2290%22%20as%3D%22geometry%22%2F%3E%3C%2FmxCell%3E%3C%2Froot%3E%3C%2FmxGraphModel%3E&lt;/span&gt;" style="text;html=1;align=center;verticalAlign=middle;whiteSpace=wrap;rounded=0;" vertex="1" parent="1">
          <mxGeometry x="1345" y="-640" width="60" height="70" as="geometry" />
        </mxCell>
        <mxCell id="GwmX7n52m_noJ4MPf2nf-30" value="Maybe a drop down menu for my other game idea if I can finish this idea first" style="rounded=1;whiteSpace=wrap;html=1;" vertex="1" parent="1">
          <mxGeometry x="1120" y="-280" width="320" height="40" as="geometry" />
        </mxCell>
        <mxCell id="GwmX7n52m_noJ4MPf2nf-32" value="&lt;u style=&quot;font-size: 24px; font-weight: 700; text-wrap: nowrap;&quot;&gt;Pokemon TCG&lt;br&gt;What is that fact?&lt;/u&gt;&lt;div&gt;&lt;u style=&quot;font-size: 24px; font-weight: 700; text-wrap: nowrap;&quot;&gt;&lt;br&gt;&lt;/u&gt;&lt;/div&gt;&lt;div&gt;&lt;u style=&quot;font-size: 24px; font-weight: 700; text-wrap: nowrap;&quot;&gt;&lt;br&gt;&lt;/u&gt;&lt;/div&gt;" style="rounded=1;whiteSpace=wrap;html=1;" vertex="1" parent="1">
          <mxGeometry x="1080" width="400" height="120" as="geometry" />
        </mxCell>
        <mxCell id="GwmX7n52m_noJ4MPf2nf-90" style="edgeStyle=orthogonalEdgeStyle;rounded=0;orthogonalLoop=1;jettySize=auto;html=1;entryX=0;entryY=0.5;entryDx=0;entryDy=0;" edge="1" parent="1" source="GwmX7n52m_noJ4MPf2nf-33" target="GwmX7n52m_noJ4MPf2nf-32">
          <mxGeometry relative="1" as="geometry">
            <mxPoint x="850" y="340" as="targetPoint" />
          </mxGeometry>
        </mxCell>
        <mxCell id="GwmX7n52m_noJ4MPf2nf-33" value="&lt;font style=&quot;font-size: 18px;&quot;&gt;This is a game of multiple choice question.&lt;br&gt;&lt;br&gt;Basically like kahoot but with facts of directly from the cards themselves, the data base from the api or just facts from the pokemon itself.&lt;/font&gt;&lt;div&gt;&lt;font style=&quot;font-size: 18px;&quot;&gt;&lt;br&gt;&lt;/font&gt;&lt;/div&gt;&lt;div&gt;&lt;font style=&quot;font-size: 18px;&quot;&gt;The choices will be randomized but the positions may just be hard coded.&amp;nbsp;&lt;/font&gt;&lt;/div&gt;" style="text;html=1;align=center;verticalAlign=middle;whiteSpace=wrap;rounded=0;" vertex="1" parent="1">
          <mxGeometry x="575" y="10" width="275" height="260" as="geometry" />
        </mxCell>
        <mxCell id="GwmX7n52m_noJ4MPf2nf-39" value="" style="rounded=1;whiteSpace=wrap;html=1;" vertex="1" parent="1">
          <mxGeometry x="1145.5" y="150" width="259.5" height="360" as="geometry" />
        </mxCell>
        <mxCell id="GwmX7n52m_noJ4MPf2nf-40" value="" style="rounded=1;whiteSpace=wrap;html=1;" vertex="1" parent="1">
          <mxGeometry x="1145" y="170" width="259.5" height="360" as="geometry" />
        </mxCell>
        <mxCell id="GwmX7n52m_noJ4MPf2nf-41" value="" style="rounded=1;whiteSpace=wrap;html=1;" vertex="1" parent="1">
          <mxGeometry x="1145" y="160" width="259.5" height="360" as="geometry" />
        </mxCell>
        <mxCell id="GwmX7n52m_noJ4MPf2nf-42" value="&lt;font style=&quot;font-size: 36px;&quot;&gt;Pokemon card image&lt;/font&gt;&lt;div&gt;&lt;span style=&quot;font-size: 36px;&quot;&gt;here&lt;/span&gt;&lt;/div&gt;" style="text;html=1;align=center;verticalAlign=middle;whiteSpace=wrap;rounded=0;" vertex="1" parent="1">
          <mxGeometry x="1155" y="170" width="235" height="340" as="geometry" />
        </mxCell>
        <mxCell id="GwmX7n52m_noJ4MPf2nf-43" value="" style="rounded=1;whiteSpace=wrap;html=1;" vertex="1" parent="1">
          <mxGeometry x="880" y="550" width="280" height="120" as="geometry" />
        </mxCell>
        <mxCell id="GwmX7n52m_noJ4MPf2nf-45" value="" style="rounded=1;whiteSpace=wrap;html=1;" vertex="1" parent="1">
          <mxGeometry x="880" y="850" width="280" height="120" as="geometry" />
        </mxCell>
        <mxCell id="GwmX7n52m_noJ4MPf2nf-64" style="edgeStyle=orthogonalEdgeStyle;rounded=0;orthogonalLoop=1;jettySize=auto;html=1;entryX=0.5;entryY=1;entryDx=0;entryDy=0;" edge="1" parent="1" source="GwmX7n52m_noJ4MPf2nf-63" target="GwmX7n52m_noJ4MPf2nf-48">
          <mxGeometry relative="1" as="geometry" />
        </mxCell>
        <mxCell id="GwmX7n52m_noJ4MPf2nf-63" value="Pokeball" style="text;html=1;align=center;verticalAlign=middle;whiteSpace=wrap;rounded=0;" vertex="1" parent="1">
          <mxGeometry x="1050" y="730" width="60" height="30" as="geometry" />
        </mxCell>
        <mxCell id="GwmX7n52m_noJ4MPf2nf-65" value="&lt;div&gt;Great Ball&lt;/div&gt;" style="text;html=1;align=center;verticalAlign=middle;whiteSpace=wrap;rounded=0;" vertex="1" parent="1">
          <mxGeometry x="1307.75" y="580" width="60" height="30" as="geometry" />
        </mxCell>
        <mxCell id="GwmX7n52m_noJ4MPf2nf-67" style="edgeStyle=orthogonalEdgeStyle;rounded=0;orthogonalLoop=1;jettySize=auto;html=1;entryX=0.003;entryY=0.368;entryDx=0;entryDy=0;entryPerimeter=0;" edge="1" parent="1" source="GwmX7n52m_noJ4MPf2nf-65" target="GwmX7n52m_noJ4MPf2nf-50">
          <mxGeometry relative="1" as="geometry" />
        </mxCell>
        <mxCell id="GwmX7n52m_noJ4MPf2nf-68" value="Ultra Ball" style="text;html=1;align=center;verticalAlign=middle;whiteSpace=wrap;rounded=0;" vertex="1" parent="1">
          <mxGeometry x="1293" y="890" width="60" height="30" as="geometry" />
        </mxCell>
        <mxCell id="GwmX7n52m_noJ4MPf2nf-69" style="edgeStyle=orthogonalEdgeStyle;rounded=0;orthogonalLoop=1;jettySize=auto;html=1;entryX=0.25;entryY=1;entryDx=0;entryDy=0;entryPerimeter=0;" edge="1" parent="1" source="GwmX7n52m_noJ4MPf2nf-68" target="GwmX7n52m_noJ4MPf2nf-49">
          <mxGeometry relative="1" as="geometry" />
        </mxCell>
        <mxCell id="GwmX7n52m_noJ4MPf2nf-85" style="edgeStyle=orthogonalEdgeStyle;rounded=0;orthogonalLoop=1;jettySize=auto;html=1;entryX=1;entryY=1;entryDx=0;entryDy=0;" edge="1" parent="1" source="GwmX7n52m_noJ4MPf2nf-70" target="GwmX7n52m_noJ4MPf2nf-79">
          <mxGeometry relative="1" as="geometry" />
        </mxCell>
        <mxCell id="GwmX7n52m_noJ4MPf2nf-70" value="Master Ball" style="text;html=1;align=center;verticalAlign=middle;whiteSpace=wrap;rounded=0;" vertex="1" parent="1">
          <mxGeometry x="1170" y="925" width="60" height="30" as="geometry" />
        </mxCell>
        <mxCell id="GwmX7n52m_noJ4MPf2nf-73" value="" style="rounded=1;whiteSpace=wrap;html=1;" vertex="1" parent="1">
          <mxGeometry x="890" y="560" width="260" height="100" as="geometry" />
        </mxCell>
        <mxCell id="GwmX7n52m_noJ4MPf2nf-48" value="" style="ellipse;whiteSpace=wrap;html=1;aspect=fixed;" vertex="1" parent="1">
          <mxGeometry x="1121" y="640" width="80" height="80" as="geometry" />
        </mxCell>
        <mxCell id="GwmX7n52m_noJ4MPf2nf-57" value="" style="endArrow=none;html=1;rounded=0;entryX=0;entryY=0.5;entryDx=0;entryDy=0;exitX=1;exitY=0.5;exitDx=0;exitDy=0;" edge="1" parent="1">
          <mxGeometry width="50" height="50" relative="1" as="geometry">
            <mxPoint x="1201" y="680" as="sourcePoint" />
            <mxPoint x="1121" y="680" as="targetPoint" />
          </mxGeometry>
        </mxCell>
        <mxCell id="GwmX7n52m_noJ4MPf2nf-51" value="" style="ellipse;whiteSpace=wrap;html=1;aspect=fixed;" vertex="1" parent="1">
          <mxGeometry x="1141" y="660" width="40" height="40" as="geometry" />
        </mxCell>
        <mxCell id="GwmX7n52m_noJ4MPf2nf-76" value="" style="rounded=1;whiteSpace=wrap;html=1;" vertex="1" parent="1">
          <mxGeometry x="1400" y="550" width="280" height="120" as="geometry" />
        </mxCell>
        <mxCell id="GwmX7n52m_noJ4MPf2nf-77" value="" style="rounded=1;whiteSpace=wrap;html=1;" vertex="1" parent="1">
          <mxGeometry x="1410" y="560" width="260" height="100" as="geometry" />
        </mxCell>
        <mxCell id="GwmX7n52m_noJ4MPf2nf-50" value="" style="ellipse;whiteSpace=wrap;html=1;aspect=fixed;" vertex="1" parent="1">
          <mxGeometry x="1360" y="640" width="80" height="80" as="geometry" />
        </mxCell>
        <mxCell id="GwmX7n52m_noJ4MPf2nf-59" value="" style="endArrow=none;html=1;rounded=0;entryX=0;entryY=0.5;entryDx=0;entryDy=0;exitX=1;exitY=0.5;exitDx=0;exitDy=0;" edge="1" parent="1">
          <mxGeometry width="50" height="50" relative="1" as="geometry">
            <mxPoint x="1440" y="680" as="sourcePoint" />
            <mxPoint x="1360" y="680" as="targetPoint" />
          </mxGeometry>
        </mxCell>
        <mxCell id="GwmX7n52m_noJ4MPf2nf-53" value="" style="ellipse;whiteSpace=wrap;html=1;aspect=fixed;" vertex="1" parent="1">
          <mxGeometry x="1380.5" y="660" width="40" height="40" as="geometry" />
        </mxCell>
        <mxCell id="GwmX7n52m_noJ4MPf2nf-78" value="" style="rounded=1;whiteSpace=wrap;html=1;" vertex="1" parent="1">
          <mxGeometry x="890" y="860" width="260" height="100" as="geometry" />
        </mxCell>
        <mxCell id="GwmX7n52m_noJ4MPf2nf-81" value="" style="endArrow=none;html=1;rounded=0;entryX=0;entryY=0.5;entryDx=0;entryDy=0;exitX=1;exitY=0.5;exitDx=0;exitDy=0;" edge="1" parent="1" target="GwmX7n52m_noJ4MPf2nf-79">
          <mxGeometry width="50" height="50" relative="1" as="geometry">
            <mxPoint x="1201" y="839.5699999999999" as="sourcePoint" />
            <mxPoint x="1121" y="839.5699999999999" as="targetPoint" />
          </mxGeometry>
        </mxCell>
        <mxCell id="GwmX7n52m_noJ4MPf2nf-79" value="" style="ellipse;whiteSpace=wrap;html=1;aspect=fixed;" vertex="1" parent="1">
          <mxGeometry x="1120" y="800" width="80" height="80" as="geometry" />
        </mxCell>
        <mxCell id="GwmX7n52m_noJ4MPf2nf-82" value="" style="endArrow=none;html=1;rounded=0;entryX=0;entryY=0.5;entryDx=0;entryDy=0;exitX=1;exitY=0.5;exitDx=0;exitDy=0;" edge="1" parent="1">
          <mxGeometry width="50" height="50" relative="1" as="geometry">
            <mxPoint x="1200.5" y="839.5699999999999" as="sourcePoint" />
            <mxPoint x="1120.5" y="839.5699999999999" as="targetPoint" />
          </mxGeometry>
        </mxCell>
        <mxCell id="GwmX7n52m_noJ4MPf2nf-52" value="" style="ellipse;whiteSpace=wrap;html=1;aspect=fixed;" vertex="1" parent="1">
          <mxGeometry x="1141" y="820" width="40" height="40" as="geometry" />
        </mxCell>
        <mxCell id="GwmX7n52m_noJ4MPf2nf-83" value="" style="rounded=1;whiteSpace=wrap;html=1;" vertex="1" parent="1">
          <mxGeometry x="1400" y="850" width="280" height="120" as="geometry" />
        </mxCell>
        <mxCell id="GwmX7n52m_noJ4MPf2nf-84" value="" style="rounded=1;whiteSpace=wrap;html=1;" vertex="1" parent="1">
          <mxGeometry x="1410" y="860" width="260" height="100" as="geometry" />
        </mxCell>
        <mxCell id="GwmX7n52m_noJ4MPf2nf-49" value="" style="ellipse;whiteSpace=wrap;html=1;aspect=fixed;" vertex="1" parent="1">
          <mxGeometry x="1360.5" y="800" width="80" height="80" as="geometry" />
        </mxCell>
        <mxCell id="GwmX7n52m_noJ4MPf2nf-62" value="" style="endArrow=none;html=1;rounded=0;entryX=0;entryY=0.5;entryDx=0;entryDy=0;exitX=1;exitY=0.5;exitDx=0;exitDy=0;" edge="1" parent="1">
          <mxGeometry width="50" height="50" relative="1" as="geometry">
            <mxPoint x="1440" y="839.26" as="sourcePoint" />
            <mxPoint x="1360" y="839.26" as="targetPoint" />
          </mxGeometry>
        </mxCell>
        <mxCell id="GwmX7n52m_noJ4MPf2nf-55" value="" style="ellipse;whiteSpace=wrap;html=1;aspect=fixed;" vertex="1" parent="1">
          <mxGeometry x="1380.5" y="820" width="40" height="40" as="geometry" />
        </mxCell>
        <mxCell id="GwmX7n52m_noJ4MPf2nf-87" value="WIll have the rotom color palatte" style="text;html=1;align=center;verticalAlign=middle;whiteSpace=wrap;rounded=0;" vertex="1" parent="1">
          <mxGeometry x="940" y="710" width="60" height="70" as="geometry" />
        </mxCell>
        <mxCell id="GwmX7n52m_noJ4MPf2nf-88" style="edgeStyle=orthogonalEdgeStyle;rounded=0;orthogonalLoop=1;jettySize=auto;html=1;entryX=0.164;entryY=1.022;entryDx=0;entryDy=0;entryPerimeter=0;" edge="1" parent="1" source="GwmX7n52m_noJ4MPf2nf-87" target="GwmX7n52m_noJ4MPf2nf-43">
          <mxGeometry relative="1" as="geometry" />
        </mxCell>
        <mxCell id="GwmX7n52m_noJ4MPf2nf-89" value="&lt;font style=&quot;font-size: 24px;&quot;&gt;Questionnaire:&lt;/font&gt;&lt;div&gt;&lt;font size=&quot;3&quot;&gt;Win streak here&lt;/font&gt;&lt;/div&gt;" style="rounded=1;whiteSpace=wrap;html=1;" vertex="1" parent="1">
          <mxGeometry x="1480" y="200" width="160" height="160" as="geometry" />
        </mxCell>
        <mxCell id="GwmX7n52m_noJ4MPf2nf-91" value="" style="triangle;whiteSpace=wrap;html=1;" vertex="1" parent="1">
          <mxGeometry x="902.5" y="595" width="17.5" height="30" as="geometry" />
        </mxCell>
        <mxCell id="GwmX7n52m_noJ4MPf2nf-92" value="" style="triangle;whiteSpace=wrap;html=1;" vertex="1" parent="1">
          <mxGeometry x="900" y="895" width="17.5" height="30" as="geometry" />
        </mxCell>
        <mxCell id="GwmX7n52m_noJ4MPf2nf-94" value="" style="triangle;whiteSpace=wrap;html=1;direction=west;" vertex="1" parent="1">
          <mxGeometry x="1640" y="595" width="17.5" height="30" as="geometry" />
        </mxCell>
        <mxCell id="GwmX7n52m_noJ4MPf2nf-95" value="" style="triangle;whiteSpace=wrap;html=1;direction=west;" vertex="1" parent="1">
          <mxGeometry x="1640" y="895" width="17.5" height="30" as="geometry" />
        </mxCell>
        <mxCell id="GwmX7n52m_noJ4MPf2nf-96" value="Answer: A?" style="text;html=1;align=center;verticalAlign=middle;whiteSpace=wrap;rounded=0;" vertex="1" parent="1">
          <mxGeometry x="920" y="587.5" width="210" height="45" as="geometry" />
        </mxCell>
        <mxCell id="GwmX7n52m_noJ4MPf2nf-97" value="Answer: B?&lt;span style=&quot;color: rgba(0, 0, 0, 0); font-family: monospace; font-size: 0px; text-align: start; text-wrap: nowrap;&quot;&gt;%3CmxGraphModel%3E%3Croot%3E%3CmxCell%20id%3D%220%22%2F%3E%3CmxCell%20id%3D%221%22%20parent%3D%220%22%2F%3E%3CmxCell%20id%3D%222%22%20value%3D%22Answer%3A%20A%3F%22%20style%3D%22text%3Bhtml%3D1%3Balign%3Dcenter%3BverticalAlign%3Dmiddle%3BwhiteSpace%3Dwrap%3Brounded%3D0%3B%22%20vertex%3D%221%22%20parent%3D%221%22%3E%3CmxGeometry%20x%3D%22920%22%20y%3D%22587.5%22%20width%3D%22210%22%20height%3D%2245%22%20as%3D%22geometry%22%2F%3E%3C%2FmxCell%3E%3C%2Froot%3E%3C%2FmxGraphModel%3E&lt;/span&gt;" style="text;html=1;align=center;verticalAlign=middle;whiteSpace=wrap;rounded=0;" vertex="1" parent="1">
          <mxGeometry x="1430" y="587.5" width="210" height="45" as="geometry" />
        </mxCell>
        <mxCell id="GwmX7n52m_noJ4MPf2nf-98" value="Answer: C&lt;span style=&quot;color: rgba(0, 0, 0, 0); font-family: monospace; font-size: 0px; text-align: start; text-wrap: nowrap;&quot;&gt;%3CmxGraphModel%3E%3Croot%3E%3CmxCell%20id%3D%220%22%2F%3E%3CmxCell%20id%3D%221%22%20parent%3D%220%22%2F%3E%3CmxCell%20id%3D%222%22%20value%3D%22Answer%3A%20B%3F%26lt%3Bspan%20style%3D%26quot%3Bcolor%3A%20rgba(0%2C%200%2C%200%2C%200)%3B%20font-family%3A%20monospace%3B%20font-size%3A%200px%3B%20text-align%3A%20start%3B%20text-wrap%3A%20nowrap%3B%26quot%3B%26gt%3B%253CmxGraphModel%253E%253Croot%253E%253CmxCell%2520id%253D%25220%2522%252F%253E%253CmxCell%2520id%253D%25221%2522%2520parent%253D%25220%2522%252F%253E%253CmxCell%2520id%253D%25222%2522%2520value%253D%2522Answer%253A%2520A%253F%2522%2520style%253D%2522text%253Bhtml%253D1%253Balign%253Dcenter%253BverticalAlign%253Dmiddle%253BwhiteSpace%253Dwrap%253Brounded%253D0%253B%2522%2520vertex%253D%25221%2522%2520parent%253D%25221%2522%253E%253CmxGeometry%2520x%253D%2522920%2522%2520y%253D%2522587.5%2522%2520width%253D%2522210%2522%2520height%253D%252245%2522%2520as%253D%2522geometry%2522%252F%253E%253C%252FmxCell%253E%253C%252Froot%253E%253C%252FmxGraphModel%253E%26lt%3B%2Fspan%26gt%3B%22%20style%3D%22text%3Bhtml%3D1%3Balign%3Dcenter%3BverticalAlign%3Dmiddle%3BwhiteSpace%3Dwrap%3Brounded%3D0%3B%22%20vertex%3D%221%22%20parent%3D%221%22%3E%3CmxGeometry%20x%3D%221430%22%20y%3D%22587.5%22%20width%3D%22210%22%20height%3D%2245%22%20as%3D%22geometry%22%2F%3E%3C%2FmxCell%3E%3C%2Froot%3E%3C%2FmxGraphModel%3E&lt;/span&gt;?&lt;span style=&quot;color: rgba(0, 0, 0, 0); font-family: monospace; font-size: 0px; text-align: start; text-wrap: nowrap;&quot;&gt;%3CmxGraphModel%3E%3Croot%3E%3CmxCell%20id%3D%220%22%2F%3E%3CmxCell%20id%3D%221%22%20parent%3D%220%22%2F%3E%3CmxCell%20id%3D%222%22%20value%3D%22Answer%3A%20A%3F%22%20style%3D%22text%3Bhtml%3D1%3Balign%3Dcenter%3BverticalAlign%3Dmiddle%3BwhiteSpace%3Dwrap%3Brounded%3D0%3B%22%20vertex%3D%221%22%20parent%3D%221%22%3E%3CmxGeometry%20x%3D%22920%22%20y%3D%22587.5%22%20width%3D%22210%22%20height%3D%2245%22%20as%3D%22geometry%22%2F%3E%3C%2FmxCell%3E%3C%2Froot%3E%3C%2FmxGraphModel%3E&lt;/span&gt;" style="text;html=1;align=center;verticalAlign=middle;whiteSpace=wrap;rounded=0;" vertex="1" parent="1">
          <mxGeometry x="1430" y="890" width="210" height="45" as="geometry" />
        </mxCell>
        <mxCell id="GwmX7n52m_noJ4MPf2nf-99" value="Answer: D&lt;span style=&quot;color: rgba(0, 0, 0, 0); font-family: monospace; font-size: 0px; text-align: start; text-wrap: nowrap;&quot;&gt;3CmxGraphModel%3E%3Croot%3E%3CmxCell%20id%3D%220%22%2F%3E%3CmxCell%20id%3D%221%22%20parent%3D%220%22%2F%3E%3CmxCell%20id%3D%222%22%20value%3D%22Answer%3A%20B%3F%26lt%3Bspan%20style%3D%26quot%3Bcolor%3A%20rgba(0%2C%200%2C%200%2C%200)%3B%20font-family%3A%20monospace%3B%20font-size%3A%200px%3B%20text-align%3A%20start%3B%20text-wrap%3A%20nowrap%3B%26quot%3B%26gt%3B%253CmxGraphModel%253E%253Croot%253E%253CmxCell%2520id%253D%25220%2522%252F%253E%253CmxCell%2520id%253D%25221%2522%2520parent%253D%25220%2522%252F%253E%253CmxCell%2520id%253D%25222%2522%2520value%253D%2522Answer%253A%2520A%253F%2522%2520style%253D%2522text%253Bhtml%253D1%253Balign%253Dcenter%253BverticalAlign%253Dmiddle%253BwhiteSpace%253Dwrap%253Brounded%253D0%253B%2522%2520vertex%253D%25221%2522%2520parent%253D%25221%2522%253E%253CmxGeometry%2520x%253D%2522920%2522%2520y%253D%2522587.5%2522%2520width%253D%2522210%2522%2520height%253D%252245%2522%2520as%253D%2522geometry%2522%252F%253E%253C%252FmxCell%253E%253C%252Froot%253E%253C%252FmxGraphModel%253E%26lt%3B%2Fspan%26gt%3B%22%20style%3D%22text%3Bhtml%3D1%3Balign%3Dcenter%3BverticalAlign%3Dmiddle%3BwhiteSpace%3Dwrap%3Brounded%3D0%3B%22%20vertex%3D%221%22%20parent%3D%221%22%3E%3CmxGeometry%20x%3D%221430%22%20y%3D%22587.5%22%20width%3D%22210%22%20height%3D%2245%22%20as%3D%22geometry%22%2F%3E%3C%2FmxCell%3E%3C%2Froot%3E%3C%2FmxGraphModel%3E&lt;/span&gt;?&lt;span style=&quot;color: rgba(0, 0, 0, 0); font-family: monospace; font-size: 0px; text-align: start; text-wrap: nowrap;&quot;&gt;%3CmxGraphModel%3E%3Croot%3E%3CmxCell%20id%3D%220%22%2F%3E%3CmxCell%20id%3D%221%22%20parent%3D%220%22%2F%3E%3CmxCell%20id%3D%222%22%20value%3D%22Answer%3A%20A%3F%22%20style%3D%22text%3Bhtml%3D1%3Balign%3Dcenter%3BverticalAlign%3Dmiddle%3BwhiteSpace%3Dwrap%3Brounded%3D0%3B%22%20vertex%3D%221%22%20parent%3D%221%22%3E%3CmxGeometry%20x%3D%22920%22%20y%3D%22587.5%22%20width%3D%22210%22%20height%3D%2245%22%20as%3D%22geometry%22%2F%3E%3C%2FmxCell%3E%3C%2Froot%3E%3C%2FmxGraphModel%3E&lt;/span&gt;" style="text;html=1;align=center;verticalAlign=middle;whiteSpace=wrap;rounded=0;" vertex="1" parent="1">
          <mxGeometry x="920" y="887.5" width="210" height="45" as="geometry" />
        </mxCell>
        <mxCell id="GwmX7n52m_noJ4MPf2nf-100" value="The back ground will be green" style="text;html=1;align=center;verticalAlign=middle;whiteSpace=wrap;rounded=0;" vertex="1" parent="1">
          <mxGeometry x="1550" y="50" width="90" height="50" as="geometry" />
        </mxCell>
        <mxCell id="GwmX7n52m_noJ4MPf2nf-101" value="&lt;u style=&quot;font-size: 24px; font-weight: 700; text-wrap: nowrap;&quot;&gt;Pokemon TCG&lt;br&gt;Can you defeat it?&lt;/u&gt;&lt;div&gt;&lt;br&gt;&lt;/div&gt;" style="rounded=1;whiteSpace=wrap;html=1;" vertex="1" parent="1">
          <mxGeometry x="225.25" y="-1090" width="400" height="110" as="geometry" />
        </mxCell>
        <mxCell id="GwmX7n52m_noJ4MPf2nf-102" value="" style="rounded=1;whiteSpace=wrap;html=1;" vertex="1" parent="1">
          <mxGeometry x="600" y="-970" width="200" height="280" as="geometry" />
        </mxCell>
        <mxCell id="GwmX7n52m_noJ4MPf2nf-103" value="" style="rounded=1;whiteSpace=wrap;html=1;" vertex="1" parent="1">
          <mxGeometry x="590" y="-962.5" width="200" height="280" as="geometry" />
        </mxCell>
        <mxCell id="GwmX7n52m_noJ4MPf2nf-104" value="" style="rounded=1;whiteSpace=wrap;html=1;" vertex="1" parent="1">
          <mxGeometry x="600" y="-647" width="200" height="280" as="geometry" />
        </mxCell>
        <mxCell id="GwmX7n52m_noJ4MPf2nf-105" value="" style="rounded=1;whiteSpace=wrap;html=1;" vertex="1" parent="1">
          <mxGeometry x="590" y="-640" width="200" height="280" as="geometry" />
        </mxCell>
        <mxCell id="GwmX7n52m_noJ4MPf2nf-106" value="" style="rounded=1;whiteSpace=wrap;html=1;" vertex="1" parent="1">
          <mxGeometry x="600" y="-330" width="200" height="280" as="geometry" />
        </mxCell>
        <mxCell id="GwmX7n52m_noJ4MPf2nf-107" value="" style="rounded=1;whiteSpace=wrap;html=1;" vertex="1" parent="1">
          <mxGeometry x="590" y="-320" width="200" height="280" as="geometry" />
        </mxCell>
        <mxCell id="GwmX7n52m_noJ4MPf2nf-108" value="" style="rounded=1;whiteSpace=wrap;html=1;" vertex="1" parent="1">
          <mxGeometry x="40" y="-320" width="200" height="280" as="geometry" />
        </mxCell>
        <mxCell id="GwmX7n52m_noJ4MPf2nf-109" value="" style="rounded=1;whiteSpace=wrap;html=1;" vertex="1" parent="1">
          <mxGeometry x="40" y="-640" width="200" height="280" as="geometry" />
        </mxCell>
        <mxCell id="GwmX7n52m_noJ4MPf2nf-110" value="" style="rounded=1;whiteSpace=wrap;html=1;" vertex="1" parent="1">
          <mxGeometry x="40" y="-962.5" width="200" height="280" as="geometry" />
        </mxCell>
        <mxCell id="GwmX7n52m_noJ4MPf2nf-111" value="" style="rounded=1;whiteSpace=wrap;html=1;" vertex="1" parent="1">
          <mxGeometry x="50" y="-970" width="200" height="280" as="geometry" />
        </mxCell>
        <mxCell id="GwmX7n52m_noJ4MPf2nf-112" value="" style="rounded=1;whiteSpace=wrap;html=1;" vertex="1" parent="1">
          <mxGeometry x="50" y="-650" width="200" height="280" as="geometry" />
        </mxCell>
        <mxCell id="GwmX7n52m_noJ4MPf2nf-113" value="" style="rounded=1;whiteSpace=wrap;html=1;" vertex="1" parent="1">
          <mxGeometry x="50" y="-330" width="200" height="280" as="geometry" />
        </mxCell>
        <mxCell id="GwmX7n52m_noJ4MPf2nf-128" value="This is a pokeball" style="text;html=1;align=center;verticalAlign=middle;whiteSpace=wrap;rounded=0;" vertex="1" parent="1">
          <mxGeometry x="1148" y="-637" width="60" height="30" as="geometry" />
        </mxCell>
        <mxCell id="GwmX7n52m_noJ4MPf2nf-129" style="edgeStyle=orthogonalEdgeStyle;rounded=0;orthogonalLoop=1;jettySize=auto;html=1;entryX=0.008;entryY=0.63;entryDx=0;entryDy=0;entryPerimeter=0;" edge="1" parent="1" source="GwmX7n52m_noJ4MPf2nf-128" target="GwmX7n52m_noJ4MPf2nf-8">
          <mxGeometry relative="1" as="geometry" />
        </mxCell>
        <mxCell id="GwmX7n52m_noJ4MPf2nf-130" value="These timers will have the timer balls design" style="text;html=1;align=center;verticalAlign=middle;whiteSpace=wrap;rounded=0;" vertex="1" parent="1">
          <mxGeometry x="1440" y="-525" width="100" height="45" as="geometry" />
        </mxCell>
        <mxCell id="GwmX7n52m_noJ4MPf2nf-131" style="edgeStyle=orthogonalEdgeStyle;rounded=0;orthogonalLoop=1;jettySize=auto;html=1;entryX=0.725;entryY=0.979;entryDx=0;entryDy=0;entryPerimeter=0;" edge="1" parent="1" source="GwmX7n52m_noJ4MPf2nf-130" target="GwmX7n52m_noJ4MPf2nf-25">
          <mxGeometry relative="1" as="geometry" />
        </mxCell>
        <mxCell id="GwmX7n52m_noJ4MPf2nf-133" value="" style="ellipse;whiteSpace=wrap;html=1;aspect=fixed;" vertex="1" parent="1">
          <mxGeometry x="389" y="-536.25" width="72.5" height="72.5" as="geometry" />
        </mxCell>
        <mxCell id="GwmX7n52m_noJ4MPf2nf-135" value="The back ground will be green&lt;div&gt;&lt;br&gt;&lt;/div&gt;" style="text;html=1;align=center;verticalAlign=middle;whiteSpace=wrap;rounded=0;" vertex="1" parent="1">
          <mxGeometry x="60" y="-1070" width="90" height="50" as="geometry" />
        </mxCell>
        <mxCell id="GwmX7n52m_noJ4MPf2nf-136" value="&lt;font style=&quot;font-size: 36px;&quot;&gt;Pokemon card image&lt;/font&gt;&lt;div&gt;&lt;span style=&quot;font-size: 36px;&quot;&gt;here&lt;/span&gt;&lt;/div&gt;" style="text;html=1;align=center;verticalAlign=middle;whiteSpace=wrap;rounded=0;" vertex="1" parent="1">
          <mxGeometry x="60" y="-960" width="180" height="260" as="geometry" />
        </mxCell>
        <mxCell id="GwmX7n52m_noJ4MPf2nf-137" value="&lt;font style=&quot;font-size: 36px;&quot;&gt;Pokemon card image&lt;/font&gt;&lt;div&gt;&lt;span style=&quot;font-size: 36px;&quot;&gt;here&lt;/span&gt;&lt;/div&gt;" style="text;html=1;align=center;verticalAlign=middle;whiteSpace=wrap;rounded=0;" vertex="1" parent="1">
          <mxGeometry x="60" y="-640" width="180" height="260" as="geometry" />
        </mxCell>
        <mxCell id="GwmX7n52m_noJ4MPf2nf-138" value="&lt;font style=&quot;font-size: 36px;&quot;&gt;Pokemon card image&lt;/font&gt;&lt;div&gt;&lt;span style=&quot;font-size: 36px;&quot;&gt;here&lt;/span&gt;&lt;/div&gt;" style="text;html=1;align=center;verticalAlign=middle;whiteSpace=wrap;rounded=0;" vertex="1" parent="1">
          <mxGeometry x="60" y="-320" width="180" height="260" as="geometry" />
        </mxCell>
        <mxCell id="GwmX7n52m_noJ4MPf2nf-139" value="&lt;font style=&quot;font-size: 36px;&quot;&gt;Pokemon card image&lt;/font&gt;&lt;div&gt;&lt;span style=&quot;font-size: 36px;&quot;&gt;here&lt;/span&gt;&lt;/div&gt;" style="text;html=1;align=center;verticalAlign=middle;whiteSpace=wrap;rounded=0;" vertex="1" parent="1">
          <mxGeometry x="600" y="-320" width="180" height="260" as="geometry" />
        </mxCell>
        <mxCell id="GwmX7n52m_noJ4MPf2nf-140" value="&lt;font style=&quot;font-size: 36px;&quot;&gt;Pokemon card image&lt;/font&gt;&lt;div&gt;&lt;span style=&quot;font-size: 36px;&quot;&gt;here&lt;/span&gt;&lt;/div&gt;" style="text;html=1;align=center;verticalAlign=middle;whiteSpace=wrap;rounded=0;" vertex="1" parent="1">
          <mxGeometry x="600" y="-637" width="180" height="260" as="geometry" />
        </mxCell>
        <mxCell id="GwmX7n52m_noJ4MPf2nf-141" value="&lt;font style=&quot;font-size: 36px;&quot;&gt;Pokemon card image&lt;/font&gt;&lt;div&gt;&lt;span style=&quot;font-size: 36px;&quot;&gt;here&lt;/span&gt;&lt;/div&gt;" style="text;html=1;align=center;verticalAlign=middle;whiteSpace=wrap;rounded=0;" vertex="1" parent="1">
          <mxGeometry x="600" y="-942.5" width="180" height="260" as="geometry" />
        </mxCell>
        <mxCell id="GwmX7n52m_noJ4MPf2nf-142" value="" style="rounded=1;whiteSpace=wrap;html=1;" vertex="1" parent="1">
          <mxGeometry x="360" y="-910" width="120" height="120" as="geometry" />
        </mxCell>
        <mxCell id="GwmX7n52m_noJ4MPf2nf-146" value="" style="rounded=1;whiteSpace=wrap;html=1;" vertex="1" parent="1">
          <mxGeometry x="360" y="-360" width="120" height="120" as="geometry" />
        </mxCell>
        <mxCell id="GwmX7n52m_noJ4MPf2nf-147" value="Number of Lives" style="text;html=1;align=center;verticalAlign=middle;whiteSpace=wrap;rounded=0;" vertex="1" parent="1">
          <mxGeometry x="379.5" y="-350" width="81" height="60" as="geometry" />
        </mxCell>
        <mxCell id="GwmX7n52m_noJ4MPf2nf-148" value="Number of Card rerolls" style="text;html=1;align=center;verticalAlign=middle;whiteSpace=wrap;rounded=0;" vertex="1" parent="1">
          <mxGeometry x="379.5" y="-280" width="81" height="30" as="geometry" />
        </mxCell>
        <mxCell id="GwmX7n52m_noJ4MPf2nf-149" value="" style="ellipse;whiteSpace=wrap;html=1;aspect=fixed;" vertex="1" parent="1">
          <mxGeometry x="220" y="-340" width="40" height="40" as="geometry" />
        </mxCell>
        <mxCell id="GwmX7n52m_noJ4MPf2nf-152" value="" style="ellipse;whiteSpace=wrap;html=1;aspect=fixed;" vertex="1" parent="1">
          <mxGeometry x="220" y="-980" width="40" height="40" as="geometry" />
        </mxCell>
        <mxCell id="GwmX7n52m_noJ4MPf2nf-154" style="edgeStyle=orthogonalEdgeStyle;rounded=0;orthogonalLoop=1;jettySize=auto;html=1;entryX=0.5;entryY=1;entryDx=0;entryDy=0;" edge="1" parent="1" source="GwmX7n52m_noJ4MPf2nf-153" target="GwmX7n52m_noJ4MPf2nf-152">
          <mxGeometry relative="1" as="geometry" />
        </mxCell>
        <mxCell id="GwmX7n52m_noJ4MPf2nf-155" style="edgeStyle=orthogonalEdgeStyle;rounded=0;orthogonalLoop=1;jettySize=auto;html=1;" edge="1" parent="1" source="GwmX7n52m_noJ4MPf2nf-153" target="GwmX7n52m_noJ4MPf2nf-151">
          <mxGeometry relative="1" as="geometry" />
        </mxCell>
        <mxCell id="GwmX7n52m_noJ4MPf2nf-156" style="edgeStyle=orthogonalEdgeStyle;rounded=0;orthogonalLoop=1;jettySize=auto;html=1;" edge="1" parent="1" source="GwmX7n52m_noJ4MPf2nf-153" target="GwmX7n52m_noJ4MPf2nf-149">
          <mxGeometry relative="1" as="geometry" />
        </mxCell>
        <mxCell id="GwmX7n52m_noJ4MPf2nf-153" value="Reroll symbol" style="text;html=1;align=center;verticalAlign=middle;whiteSpace=wrap;rounded=0;" vertex="1" parent="1">
          <mxGeometry x="310" y="-744" width="60" height="30" as="geometry" />
        </mxCell>
        <mxCell id="GwmX7n52m_noJ4MPf2nf-151" value="" style="ellipse;whiteSpace=wrap;html=1;aspect=fixed;" vertex="1" parent="1">
          <mxGeometry x="220" y="-660" width="40" height="40" as="geometry" />
        </mxCell>
        <mxCell id="GwmX7n52m_noJ4MPf2nf-157" value="Pokeball" style="text;html=1;align=center;verticalAlign=middle;whiteSpace=wrap;rounded=0;" vertex="1" parent="1">
          <mxGeometry x="425" y="-715" width="60" height="30" as="geometry" />
        </mxCell>
        <mxCell id="GwmX7n52m_noJ4MPf2nf-158" style="edgeStyle=orthogonalEdgeStyle;rounded=0;orthogonalLoop=1;jettySize=auto;html=1;entryX=0.667;entryY=0.048;entryDx=0;entryDy=0;entryPerimeter=0;" edge="1" parent="1" source="GwmX7n52m_noJ4MPf2nf-157" target="GwmX7n52m_noJ4MPf2nf-132">
          <mxGeometry relative="1" as="geometry" />
        </mxCell>
        <mxCell id="GwmX7n52m_noJ4MPf2nf-161" value="" style="rounded=1;whiteSpace=wrap;html=1;" vertex="1" parent="1">
          <mxGeometry x="360" y="-920" width="120" height="120" as="geometry" />
        </mxCell>
        <mxCell id="GwmX7n52m_noJ4MPf2nf-143" value="&lt;font style=&quot;font-size: 24px;&quot;&gt;The fainted pile&lt;/font&gt;" style="text;html=1;align=center;verticalAlign=middle;whiteSpace=wrap;rounded=0;" vertex="1" parent="1">
          <mxGeometry x="360" y="-920" width="120" height="120" as="geometry" />
        </mxCell>
        <mxCell id="GwmX7n52m_noJ4MPf2nf-163" value="&lt;font style=&quot;font-size: 24px;&quot;&gt;Rule box here&lt;/font&gt;" style="rounded=1;whiteSpace=wrap;html=1;" vertex="1" parent="1">
          <mxGeometry x="880" y="200" width="160" height="160" as="geometry" />
        </mxCell>
        <mxCell id="GwmX7n52m_noJ4MPf2nf-164" value="Up menu for rules" style="rounded=1;whiteSpace=wrap;html=1;" vertex="1" parent="1">
          <mxGeometry x="360" y="-40" width="120" height="20" as="geometry" />
        </mxCell>
        <mxCell id="GwmX7n52m_noJ4MPf2nf-168" style="edgeStyle=orthogonalEdgeStyle;rounded=0;orthogonalLoop=1;jettySize=auto;html=1;" edge="1" parent="1" source="GwmX7n52m_noJ4MPf2nf-166">
          <mxGeometry relative="1" as="geometry">
            <mxPoint x="430" y="-10" as="targetPoint" />
          </mxGeometry>
        </mxCell>
        <mxCell id="GwmX7n52m_noJ4MPf2nf-166" value="&lt;h3&gt;Pokémon Typing: Important to Know!&lt;/h3&gt;&lt;p&gt;&lt;strong&gt;No Damage!&lt;/strong&gt;&lt;br&gt;No effect (0%)&lt;/p&gt;&lt;p&gt;&lt;strong&gt;Half Damage!&lt;/strong&gt;&lt;br&gt;Not very effective (50%)&lt;/p&gt;&lt;p&gt;&lt;strong&gt;No Changes!&lt;/strong&gt;&lt;br&gt;Normal (100%)&lt;/p&gt;&lt;p&gt;&lt;strong&gt;Double Damage!&lt;/strong&gt;&lt;br&gt;Super-effective (200%)&lt;/p&gt;&lt;hr&gt;&lt;h3&gt;How Does This Game Work?&lt;/h3&gt;&lt;p&gt;Look below your Pokémon card to see your moves.&lt;br&gt;Use them to damage opposing cards!&lt;br&gt;(Move effects aren&#39;t implemented yet, though.)&lt;br&gt;With your card and the cheat sheet in hand,&lt;br&gt;&lt;strong&gt;It&#39;s up to you to win 10 in a row&lt;/strong&gt;!&lt;br&gt;If you do, you&#39;ll face a randomized Elite Four.&lt;/p&gt;&lt;hr&gt;&lt;h3&gt;The Rules:&lt;/h3&gt;&lt;p&gt;Once your three cards are down, they&#39;re out of the randomized pull.&lt;br&gt;You have &lt;strong&gt;four lives&lt;/strong&gt; and &lt;strong&gt;six card rerolls&lt;/strong&gt;.&lt;br&gt;After that, you&#39;re &lt;strong&gt;OUT&lt;/strong&gt;!&lt;br&gt;Think ahead, make your moves count,&lt;br&gt;And prove you’re the best!&lt;/p&gt;&lt;p&gt;Good luck, Trainer!&lt;/p&gt;" style="text;html=1;align=center;verticalAlign=middle;whiteSpace=wrap;rounded=0;" vertex="1" parent="1">
          <mxGeometry x="19.5" width="360" height="620" as="geometry" />
        </mxCell>
        <mxCell id="GwmX7n52m_noJ4MPf2nf-170" style="edgeStyle=orthogonalEdgeStyle;rounded=0;orthogonalLoop=1;jettySize=auto;html=1;entryX=1;entryY=0.75;entryDx=0;entryDy=0;" edge="1" parent="1" source="GwmX7n52m_noJ4MPf2nf-169" target="GwmX7n52m_noJ4MPf2nf-101">
          <mxGeometry relative="1" as="geometry" />
        </mxCell>
        <mxCell id="GwmX7n52m_noJ4MPf2nf-169" value="Down below will have the page title but in unowns&#39; character" style="text;html=1;align=center;verticalAlign=middle;whiteSpace=wrap;rounded=0;" vertex="1" parent="1">
          <mxGeometry x="680" y="-1060" width="60" height="30" as="geometry" />
        </mxCell>
        <mxCell id="GwmX7n52m_noJ4MPf2nf-171" value="Down below will have the page title but in unowns&#39; character" style="text;html=1;align=center;verticalAlign=middle;whiteSpace=wrap;rounded=0;" vertex="1" parent="1">
          <mxGeometry x="878.75" y="30" width="60" height="30" as="geometry" />
        </mxCell>
        <mxCell id="GwmX7n52m_noJ4MPf2nf-173" style="edgeStyle=orthogonalEdgeStyle;rounded=0;orthogonalLoop=1;jettySize=auto;html=1;entryX=-0.001;entryY=0.864;entryDx=0;entryDy=0;entryPerimeter=0;" edge="1" parent="1" source="GwmX7n52m_noJ4MPf2nf-171" target="GwmX7n52m_noJ4MPf2nf-32">
          <mxGeometry relative="1" as="geometry" />
        </mxCell>
        <mxCell id="GwmX7n52m_noJ4MPf2nf-174" value="" style="ellipse;whiteSpace=wrap;html=1;aspect=fixed;" vertex="1" parent="1">
          <mxGeometry x="1220.51" y="720" width="120" height="120" as="geometry" />
        </mxCell>
        <mxCell id="GwmX7n52m_noJ4MPf2nf-176" value="Timer goes here for 10 seconds" style="text;html=1;align=center;verticalAlign=middle;whiteSpace=wrap;rounded=0;" vertex="1" parent="1">
          <mxGeometry x="1250" y="752.5" width="60.51" height="55" as="geometry" />
        </mxCell>
        <mxCell id="GwmX7n52m_noJ4MPf2nf-178" style="edgeStyle=orthogonalEdgeStyle;rounded=0;orthogonalLoop=1;jettySize=auto;html=1;" edge="1" parent="1" source="GwmX7n52m_noJ4MPf2nf-177">
          <mxGeometry relative="1" as="geometry">
            <mxPoint x="1340" y="770" as="targetPoint" />
          </mxGeometry>
        </mxCell>
        <mxCell id="GwmX7n52m_noJ4MPf2nf-177" value="The timer will have the timer balls design" style="text;html=1;align=center;verticalAlign=middle;whiteSpace=wrap;rounded=0;" vertex="1" parent="1">
          <mxGeometry x="1420" y="735" width="100" height="45" as="geometry" />
        </mxCell>
      </root>
    </mxGraphModel>
  </diagram>
</mxfile>
